<svg width="1140" height="160" viewBox="0 0 1140 160" fill="none" xmlns="http://www.w3.org/2000/svg">
<path d="M121.3 92.2175C121.3 107.427 118.823 120.789 113.869 132.303C108.916 143.746 101.82 152.559 92.5817 158.742C83.4106 164.854 72.8336 167.91 60.8509 167.91C49.002 167.91 38.4251 164.854 29.1201 158.742C19.882 152.559 12.7191 143.781 7.63146 132.409C2.61076 121.038 0.0669427 107.925 0 93.0704V84.3284C0 69.1898 2.51035 55.828 7.53105 44.2431C12.6187 32.6581 19.7481 23.8095 28.9192 17.6972C38.1573 11.5139 48.7343 8.42217 60.65 8.42217C72.5658 8.42217 83.1093 11.4783 92.2805 17.5906C101.519 23.6318 108.648 32.3738 113.669 43.8166C118.689 55.1883 121.233 68.4435 121.3 83.5821V92.2175ZM95.8954 84.1151C95.8954 66.9154 92.816 53.7313 86.6573 44.5629C80.5655 35.3945 71.8964 30.8102 60.65 30.8102C49.6715 30.8102 41.0693 35.3945 34.8437 44.5629C28.6849 53.6603 25.5386 66.5601 25.4047 83.2623V92.2175C25.4047 109.275 28.5176 122.459 34.7432 131.77C41.0359 141.08 49.7384 145.736 60.8509 145.736C72.0972 145.736 80.7328 141.187 86.7577 132.09C92.8495 122.992 95.8954 109.701 95.8954 92.2175V84.1151Z" fill="#F5F5F5"/>
<path d="M195.406 56.823C209.062 56.823 220.007 61.6915 228.241 71.4286C236.475 81.0945 240.592 94.2431 240.592 110.874V112.154C240.592 128.785 236.107 142.253 227.136 152.559C218.233 162.864 206.116 168.017 190.787 168.017C175.858 168.017 163.809 162.758 154.638 152.239C145.466 141.72 140.881 127.363 140.881 109.168V101.706C140.881 76.8301 145.031 57.1429 153.332 42.6439C161.633 28.145 174.017 19.0832 190.485 15.4584C199.723 13.4684 205.681 11.3717 208.359 9.16844C211.104 6.8941 212.476 3.83795 212.476 0H232.157C232.157 7.17839 231.053 13.0064 228.843 17.484C226.634 21.9616 223.254 25.6219 218.702 28.4648C214.15 31.2367 206.317 33.8664 195.205 36.3539C185.03 38.6283 177.264 42.6795 171.909 48.5075C166.62 54.3355 163.072 62.4023 161.265 72.7079C170.972 62.118 182.352 56.823 195.406 56.823ZM190.586 77.6119C182.687 77.6119 176.494 80.4549 172.009 86.1407C167.524 91.7555 165.281 100.426 165.281 112.154C165.281 123.241 167.491 131.876 171.909 138.06C176.327 144.243 182.62 147.335 190.787 147.335C198.887 147.335 205.146 144.243 209.564 138.06C214.049 131.805 216.292 122.424 216.292 109.915C216.292 99.9645 214.049 92.1109 209.564 86.3539C205.146 80.5259 198.82 77.6119 190.586 77.6119Z" fill="#F5F5F5"/>
<path d="M282.465 50.4264V145.096H316.404V50.4264H340.805V145.096H374.845V50.4264H399.146V145.096H417.722L415.714 200H393.522V165.778H258.064V50.4264H282.465Z" fill="#F5F5F5"/>
<path d="M481.887 167.91C466.423 167.91 453.871 162.758 444.231 152.452C434.659 142.075 429.872 128.287 429.872 111.087V107.889C429.872 96.3753 431.948 86.1052 436.098 77.0789C440.315 67.9815 446.206 60.9097 453.771 55.8635C461.335 50.8173 469.77 48.2942 479.075 48.2942C493.869 48.2942 505.283 53.3049 513.316 63.3262C521.416 73.3475 525.466 87.5266 525.466 105.864V116.311H454.474C455.21 125.835 458.189 133.369 463.411 138.913C468.699 144.456 475.326 147.228 483.293 147.228C494.472 147.228 503.576 142.431 510.605 132.836L523.759 146.162C519.408 153.056 513.584 158.422 506.287 162.26C499.058 166.027 490.924 167.91 481.887 167.91ZM478.975 69.0832C472.28 69.0832 466.858 71.5707 462.708 76.5458C458.624 81.521 456.013 88.4506 454.875 97.3348H501.367V95.4158C500.831 86.7448 498.656 80.2061 494.84 75.7996C491.024 71.322 485.736 69.0832 478.975 69.0832Z" fill="#F5F5F5"/>
<path d="M640.139 119.403H627.186V165.778H602.785V119.403H589.932L564.929 165.778H535.006L571.054 105.757L536.914 50.4264H566.737L591.338 95.7356H602.785V50.4264H627.186V95.7356H638.733L663.435 50.4264H693.258L659.218 105.437L695.467 165.778H665.142L640.139 119.403Z" fill="#F5F5F5"/>
<path d="M778.409 50.4264H802.709V165.778H778.409V88.806L735.834 165.778H711.534V50.4264H735.834V127.399L778.409 50.4264Z" fill="#F5F5F5"/>
<path d="M914.169 71.0021H878.924V165.778H854.523V71.0021H819.679V50.4264H914.169V71.0021Z" fill="#F5F5F5"/>
<path d="M998.316 50.4264H1022.62V165.778H998.316V88.806L955.74 165.778H931.44V50.4264H955.74V127.399L998.316 50.4264Z" fill="#F5F5F5"/>
<path d="M1096.42 167.91C1080.96 167.91 1068.4 162.758 1058.77 152.452C1049.19 142.075 1044.41 128.287 1044.41 111.087V107.889C1044.41 96.3753 1046.48 86.1052 1050.63 77.0789C1054.85 67.9815 1060.74 60.9097 1068.3 55.8635C1075.87 50.8173 1084.3 48.2942 1093.61 48.2942C1108.4 48.2942 1119.82 53.3049 1127.85 63.3262C1135.95 73.3475 1140 87.5266 1140 105.864V116.311H1069.01C1069.74 125.835 1072.72 133.369 1077.94 138.913C1083.23 144.456 1089.86 147.228 1097.83 147.228C1109.01 147.228 1118.11 142.431 1125.14 132.836L1138.29 146.162C1133.94 153.056 1128.12 158.422 1120.82 162.26C1113.59 166.027 1105.46 167.91 1096.42 167.91ZM1093.51 69.0832C1086.81 69.0832 1081.39 71.5707 1077.24 76.5458C1073.16 81.521 1070.55 88.4506 1069.41 97.3348H1115.9V95.4158C1115.37 86.7448 1113.19 80.2061 1109.37 75.7996C1105.56 71.322 1100.27 69.0832 1093.51 69.0832Z" fill="#F5F5F5"/>
</svg>
