<svg width="53" height="34" viewBox="0 0 53 34" fill="none" xmlns="http://www.w3.org/2000/svg">
<path d="M49.4774 4.35952C47.0598 3.46079 44.5477 3.02393 41.7993 3.02393C36.5849 3.02393 31.3439 4.64117 26.2757 6.20541C21.3157 7.73559 16.1861 9.318 11.2003 9.31876C11.1996 9.31876 11.1988 9.31876 11.1981 9.31876C7.52216 9.31876 4.22861 8.46774 1.13041 6.71572C0.895693 6.58398 0.607981 6.58625 0.376297 6.72178C0.143099 6.85731 0 7.10641 0 7.37595V30.0901C0 30.3626 0.146885 30.6147 0.384626 30.7495C3.71678 32.6318 7.25488 33.5471 11.2003 33.5471C16.414 33.5471 21.6556 31.9299 26.7231 30.3664C31.6839 28.8355 36.8143 27.2523 41.7993 27.2523C44.3652 27.2523 46.7032 27.6581 48.9497 28.4932C49.1813 28.5796 49.441 28.5463 49.6455 28.4054C49.8499 28.2631 49.971 28.0314 49.971 27.7838V5.06971C49.971 4.75247 49.7742 4.4693 49.4774 4.35952ZM48.4568 26.7238C46.3519 26.0613 44.163 25.738 41.7993 25.738C36.5849 25.738 31.344 27.3553 26.2772 28.9195C21.3164 30.4497 16.1861 32.0329 11.2003 32.0329C7.67434 32.0329 4.50118 31.2507 1.51427 29.6426V8.63204C4.51556 10.1115 7.6963 10.833 11.1981 10.833C11.1981 10.833 11.1996 10.833 11.2011 10.833C16.4147 10.8323 21.6549 9.21503 26.7224 7.6523C31.6831 6.12137 36.8143 4.5382 41.8 4.5382C44.1782 4.5382 46.361 4.88724 48.4575 5.60273V26.7238H48.4568Z" fill="#343434"/>
<path d="M37.0989 7.20926C37.0989 7.62644 37.4397 7.91113 37.8561 7.85359C39.6543 7.60449 41.4532 7.50076 43.2499 7.6113C43.3892 8.15114 43.6671 8.64479 44.0442 9.05819C44.4205 9.47234 44.8959 9.807 45.4282 10.0311C45.4282 13.6268 45.4282 17.2232 45.4282 20.8188C44.8967 20.8688 44.4205 21.0914 44.0442 21.4321C43.6671 21.7735 43.3885 22.2309 43.2499 22.754C41.4517 22.6435 39.6543 22.7495 37.8561 22.9971C37.4397 23.0539 37.0997 23.4506 37.0989 23.8663V23.867C37.0989 24.2842 37.4397 24.5674 37.8561 24.5106C39.8746 24.2305 41.8924 24.1343 43.9117 24.3183C44.3304 24.3569 44.6696 24.0624 44.6696 23.6429C44.6696 23.2257 44.8399 22.8676 45.1147 22.6337C45.3896 22.3989 45.7682 22.2907 46.1853 22.3747C46.604 22.4588 46.9425 22.2044 46.9425 21.7864C46.9425 17.7494 46.9425 13.7131 46.9425 9.67677C46.9425 9.25959 46.604 8.83483 46.1853 8.75079C45.7674 8.66599 45.3896 8.43355 45.1147 8.11858C44.8399 7.80286 44.6696 7.40385 44.6696 6.98591C44.6696 6.56873 44.3296 6.1841 43.9117 6.147C41.8924 5.96301 39.8738 6.05993 37.8561 6.34007C37.4397 6.39761 37.0997 6.79284 37.0989 7.20926Z" fill="#343434"/>
<path d="M12.1142 12.3313C10.0957 12.4033 8.07714 12.2443 6.05861 11.7544C5.63991 11.6537 5.30147 11.8945 5.30147 12.3124C5.30147 12.7296 5.1296 13.0612 4.85552 13.2513C4.58068 13.4405 4.20211 13.4882 3.78417 13.3323C3.36623 13.1778 3.02703 13.3732 3.02703 13.7903C3.02703 17.8266 3.02703 21.8637 3.02703 25.9C3.02703 26.3179 3.36699 26.801 3.78417 26.9562C4.20135 27.1114 4.58068 27.4082 4.85552 27.7656C5.13036 28.1252 5.30147 28.5507 5.30147 28.9687C5.30147 29.3866 5.63991 29.8242 6.05861 29.9249C8.07714 30.414 10.0957 30.573 12.1142 30.5011C12.5306 30.4867 12.8706 30.1225 12.8706 29.7069C12.8706 29.7069 12.8706 29.7069 12.8706 29.7061C12.8713 29.2897 12.5299 28.9724 12.1142 28.9876C10.316 29.0519 8.51855 28.9316 6.71959 28.5598C6.58255 28.0003 6.30392 27.465 5.92687 26.9948C5.54981 26.5246 5.07433 26.115 4.54206 25.8038C4.54206 22.2074 4.54206 18.6118 4.54206 15.0161C5.07433 15.0525 5.54981 14.9041 5.92687 14.6217C6.30392 14.3393 6.58255 13.9198 6.71959 13.4178C8.51779 13.7903 10.316 13.9092 12.1142 13.8449C12.5306 13.8305 12.8713 13.467 12.8713 13.0506C12.8713 13.0506 12.8713 13.0506 12.8713 13.0499C12.8721 12.6334 12.5299 12.3162 12.1142 12.3313Z" fill="#343434"/>
<path d="M27.4015 9.27246C26.5414 9.27246 25.651 9.41632 24.7546 9.701C19.7068 11.3137 15.8999 16.1291 15.8999 20.9036C15.8999 22.9365 16.5798 24.79 17.8169 26.1241C19.064 27.468 20.7978 28.2092 22.6997 28.2092C23.5212 28.2092 24.3677 28.0714 25.2142 27.8019C30.1802 26.2217 34.0712 21.1784 34.0712 16.3214C34.0704 12.1708 31.3281 9.27246 27.4015 9.27246ZM24.7553 26.358C24.0573 26.5814 23.366 26.6942 22.7005 26.6942C21.2248 26.6942 19.8847 26.1256 18.9284 25.0936C17.9517 24.0412 17.4141 22.5534 17.4149 20.9036C17.4149 16.8279 20.8417 12.541 25.2157 11.1441C25.9622 10.9071 26.6982 10.786 27.4023 10.786C30.4854 10.786 32.5569 13.0104 32.5576 16.3214C32.5569 20.4872 29.0574 24.9899 24.7553 26.358Z" fill="#343434"/>
<path d="M26.4105 12.3563C26.119 12.3563 25.8199 12.4033 25.5201 12.4956C24.7652 12.7281 24.0111 12.9582 23.257 13.1816C23.2411 13.1861 23.229 13.1975 23.2123 13.2028C23.1813 13.2142 23.1532 13.2301 23.1245 13.2452C23.0715 13.2732 23.0238 13.3043 22.9799 13.3429C22.9556 13.3648 22.9329 13.386 22.9117 13.4103C22.8708 13.4564 22.8383 13.5064 22.8095 13.5609C22.7959 13.5867 22.78 13.6094 22.7694 13.6374C22.7368 13.7222 22.7149 13.8123 22.7149 13.9077V18.6315C22.144 18.798 21.5723 18.9707 21.0015 19.1259C20.5979 19.2357 20.3594 19.6513 20.4692 20.0556C20.5608 20.3918 20.8659 20.6137 21.1991 20.6137C21.265 20.6137 21.3316 20.6046 21.3982 20.5872C21.8366 20.4683 22.2757 20.3328 22.7149 20.2071V20.9036C22.1425 21.071 21.5693 21.2413 21.0015 21.3958C20.5979 21.5056 20.3594 21.9212 20.4692 22.3255C20.5608 22.6617 20.8659 22.8836 21.1991 22.8836C21.2642 22.8836 21.3316 22.8745 21.3982 22.8571C21.8358 22.7382 22.2757 22.6057 22.7149 22.4792V23.6089C22.7149 24.0268 23.0541 24.366 23.472 24.366C23.8907 24.366 24.2291 24.0268 24.2291 23.6089V22.0416C25.0779 21.7865 25.9221 21.5268 26.7519 21.2701L27.4788 21.046C27.8785 20.9226 28.1027 20.4986 27.98 20.0996C27.8566 19.6998 27.4326 19.478 27.0336 19.5983L26.3045 19.8232C25.6215 20.0337 24.9249 20.2472 24.2284 20.4584V19.7694C24.3011 19.7475 24.3738 19.7286 24.4464 19.7066C24.4525 19.7051 24.4563 19.6998 24.4623 19.6983C24.9636 19.5476 25.464 19.3969 25.966 19.2417C27.5401 18.7556 28.7735 17.1323 28.7735 15.5446V14.792C28.7735 13.3815 27.7794 12.3563 26.4105 12.3563ZM27.2592 15.5454C27.2592 16.4577 26.4468 17.5102 25.5208 17.7956C25.09 17.9281 24.6592 18.0606 24.2291 18.1901V14.4718C24.8083 14.2984 25.3868 14.1205 25.9668 13.9425C26.711 13.7161 27.26 14.0637 27.26 14.7928V15.5454H27.2592Z" fill="#343434"/>
<path d="M52.6153 2.79287C43.75 -2.21559 34.8673 0.525242 26.2783 3.17598C17.6121 5.85094 9.42748 8.37675 1.13077 3.6878C0.767344 3.48262 0.30549 3.61133 0.0995484 3.97476C-0.106393 4.33894 0.0223202 4.80079 0.386503 5.00673C9.25106 10.0144 18.1338 7.27436 26.7243 4.62362C35.2549 1.9903 43.3199 -0.498407 51.4864 3.8998V29.195C51.4864 29.6137 51.8249 29.9521 52.2436 29.9521C52.6615 29.9521 53.0007 29.6137 53.0007 29.195V3.45233C53.0007 3.17976 52.8531 2.92764 52.6153 2.79287Z" fill="#343434"/>
</svg>
