<svg width="107" height="68" viewBox="0 0 107 68" fill="none" xmlns="http://www.w3.org/2000/svg">
<path d="M99.2702 8.74671C94.4197 6.94354 89.3793 6.06702 83.865 6.06702C73.4029 6.06702 62.8877 9.31181 52.7189 12.4503C42.7672 15.5204 32.4753 18.6953 22.472 18.6968C22.4705 18.6968 22.469 18.6968 22.4675 18.6968C15.0923 18.6968 8.48418 16.9893 2.26802 13.4741C1.7971 13.2098 1.21984 13.2144 0.754992 13.4863C0.28711 13.7582 0 14.258 0 14.7988V60.3718C0 60.9187 0.294706 61.4245 0.771704 61.6949C7.45726 65.4714 14.556 67.308 22.472 67.308C32.9326 67.308 43.4493 64.0632 53.6166 60.9263C63.5698 57.8547 73.8632 54.6782 83.865 54.6782C89.0132 54.6782 93.7042 55.4925 98.2114 57.168C98.6762 57.3412 99.1972 57.2744 99.6074 56.9918C100.018 56.7062 100.261 56.2414 100.261 55.7446V10.1716C100.261 9.53512 99.8657 8.96698 99.2702 8.74671ZM97.2224 53.6179C92.9993 52.2887 88.6076 51.64 83.865 51.64C73.4029 51.64 62.8877 54.8848 52.7219 58.0233C42.7688 61.0934 32.4753 64.2698 22.472 64.2698C15.3976 64.2698 9.03105 62.7006 3.0382 59.474V17.319C9.05991 20.2873 15.4417 21.735 22.4675 21.735C22.4675 21.735 22.4705 21.735 22.4736 21.735C32.9341 21.7335 43.4478 18.4887 53.6151 15.3533C63.5683 12.2817 73.8632 9.10522 83.8665 9.10522C88.638 9.10522 93.0175 9.80552 97.2239 11.2411V53.6179H97.2224Z" fill="#343434"/>
<path d="M74.4344 14.4643C74.4344 15.3014 75.118 15.8726 75.9535 15.7571C79.5614 15.2573 83.1707 15.0492 86.7756 15.271C87.0551 16.3541 87.6126 17.3446 88.3691 18.174C89.1241 19.0049 90.0781 19.6764 91.146 20.126C91.146 27.3402 91.146 34.556 91.146 41.7702C90.0796 41.8704 89.1241 42.317 88.3691 43.0006C87.6126 43.6858 87.0536 44.6033 86.7756 45.653C83.1677 45.4312 79.5614 45.6439 75.9535 46.1406C75.118 46.2546 74.4359 47.0506 74.4344 47.8846V47.8861C74.4344 48.7231 75.118 49.2912 75.9535 49.1773C80.0034 48.6152 84.0518 48.4223 88.1033 48.7915C88.9433 48.8689 89.6239 48.278 89.6239 47.4364C89.6239 46.5994 89.9657 45.8809 90.5171 45.4115C91.0685 44.9405 91.8281 44.7233 92.6651 44.8919C93.5052 45.0605 94.1842 44.5501 94.1842 43.7116C94.1842 35.6117 94.1842 27.5134 94.1842 19.4151C94.1842 18.5781 93.5052 17.7259 92.6651 17.5572C91.8266 17.3871 91.0685 16.9207 90.5171 16.2888C89.9657 15.6553 89.6239 14.8548 89.6239 14.0162C89.6239 13.1792 88.9418 12.4075 88.1033 12.333C84.0518 11.9639 80.0019 12.1584 75.9535 12.7204C75.118 12.8359 74.4359 13.6288 74.4344 14.4643Z" fill="#343434"/>
<path d="M24.3056 24.7412C20.2557 24.8855 16.2058 24.5665 12.1558 23.5836C11.3158 23.3816 10.6367 23.8647 10.6367 24.7032C10.6367 25.5403 10.2919 26.2056 9.74199 26.5869C9.19056 26.9667 8.43101 27.0624 7.59246 26.7495C6.75392 26.4396 6.07336 26.8315 6.07336 27.6685C6.07336 35.7668 6.07336 43.8667 6.07336 51.965C6.07336 52.8035 6.75544 53.7727 7.59246 54.0841C8.42949 54.3956 9.19056 54.991 9.74199 55.7081C10.2934 56.4296 10.6367 57.2834 10.6367 58.1219C10.6367 58.9605 11.3158 59.8385 12.1558 60.0405C16.2058 61.0219 20.2557 61.3409 24.3056 61.1966C25.1411 61.1677 25.8232 60.437 25.8232 59.603C25.8232 59.603 25.8232 59.603 25.8232 59.6015C25.8247 58.766 25.1396 58.1295 24.3056 58.1599C20.6977 58.289 17.0914 58.0475 13.482 57.3016C13.2071 56.179 12.648 55.105 11.8915 54.1616C11.135 53.2183 10.181 52.3964 9.11309 51.7721C9.11309 44.5563 9.11309 37.3421 9.11309 30.1279C10.181 30.2009 11.135 29.9031 11.8915 29.3365C12.648 28.7699 13.2071 27.9283 13.482 26.9211C17.0899 27.6685 20.6977 27.907 24.3056 27.7779C25.1411 27.749 25.8247 27.0199 25.8247 26.1843C25.8247 26.1843 25.8247 26.1843 25.8247 26.1828C25.8262 25.3473 25.1396 24.7108 24.3056 24.7412Z" fill="#343434"/>
<path d="M54.9778 18.604C53.2521 18.604 51.4656 18.8926 49.667 19.4638C39.5391 22.6995 31.9011 32.361 31.9011 41.9404C31.9011 46.0192 33.2653 49.738 35.7475 52.4146C38.2494 55.111 41.7282 56.5982 45.5441 56.5982C47.1924 56.5982 48.8907 56.3218 50.5891 55.781C60.5529 52.6106 68.3595 42.4919 68.3595 32.7468C68.358 24.4191 62.8558 18.604 54.9778 18.604ZM49.6685 52.884C48.2679 53.3322 46.881 53.5585 45.5457 53.5585C42.5849 53.5585 39.8961 52.4177 37.9775 50.3471C36.0179 48.2356 34.9393 45.2505 34.9408 41.9404C34.9408 33.7631 41.8163 25.162 50.5921 22.3592C52.09 21.8837 53.5665 21.6407 54.9793 21.6407C61.1651 21.6407 65.3213 26.1038 65.3228 32.7468C65.3213 41.1049 58.3 50.139 49.6685 52.884Z" fill="#343434"/>
<path d="M52.9893 24.7913C52.4044 24.7913 51.8044 24.8854 51.2028 25.0708C49.6883 25.5371 48.1752 25.9989 46.6622 26.4471C46.6303 26.4562 46.606 26.479 46.5726 26.4896C46.5103 26.5124 46.4541 26.5443 46.3964 26.5747C46.29 26.6309 46.1943 26.6932 46.1062 26.7706C46.0576 26.8147 46.012 26.8572 45.9695 26.9058C45.8875 26.9985 45.8221 27.0988 45.7644 27.2081C45.7371 27.2598 45.7052 27.3054 45.6839 27.3616C45.6186 27.5317 45.5745 27.7125 45.5745 27.9039V37.3816C44.4291 37.7158 43.2822 38.0621 42.1368 38.3735C41.3271 38.5938 40.8486 39.4278 41.0689 40.239C41.2527 40.9135 41.8649 41.3586 42.5333 41.3586C42.6655 41.3586 42.7991 41.3403 42.9328 41.3054C43.8124 41.0669 44.6935 40.795 45.5745 40.5428V41.9404C44.4261 42.2761 43.2761 42.6179 42.1368 42.9278C41.3271 43.1481 40.8486 43.9821 41.0689 44.7933C41.2527 45.4677 41.8649 45.9128 42.5333 45.9128C42.6639 45.9128 42.7991 45.8946 42.9328 45.8597C43.8109 45.6212 44.6935 45.3553 45.5745 45.1016V47.3681C45.5745 48.2067 46.2551 48.8872 47.0936 48.8872C47.9337 48.8872 48.6127 48.2067 48.6127 47.3681V44.2236C50.3156 43.7117 52.0094 43.1906 53.6744 42.6756L55.1327 42.226C55.9348 41.9784 56.3845 41.1277 56.1384 40.3271C55.8908 39.525 55.0401 39.0799 54.2395 39.3215L52.7766 39.7726C51.4064 40.1949 50.0088 40.6233 48.6112 41.0472V39.6648C48.7571 39.6207 48.9029 39.5827 49.0487 39.5387C49.0609 39.5356 49.0685 39.525 49.0806 39.522C50.0863 39.2197 51.0904 38.9174 52.0976 38.606C55.2558 37.6307 57.7304 34.3737 57.7304 31.1882V29.6782C57.7304 26.8481 55.7358 24.7913 52.9893 24.7913ZM54.6922 31.1897C54.6922 33.0202 53.0622 35.1318 51.2043 35.7045C50.34 35.9703 49.4756 36.2362 48.6127 36.4959V29.0356C49.7748 28.6877 50.9354 28.3308 52.0991 27.9738C53.5924 27.5196 54.6937 28.2168 54.6937 29.6797V31.1897H54.6922Z" fill="#343434"/>
<path d="M105.565 5.60354C87.7775 -4.44531 69.9554 1.05383 52.7227 6.3722C35.3351 11.7392 18.9136 16.8069 2.26734 7.39911C1.53818 6.98744 0.611524 7.24568 0.198328 7.97485C-0.214867 8.70554 0.0433795 9.63219 0.774067 10.0454C18.5597 20.0927 36.3818 14.5951 53.6175 9.27672C70.7332 3.99329 86.9146 -0.99999 103.3 7.82446V58.5761C103.3 59.4161 103.979 60.0952 104.819 60.0952C105.657 60.0952 106.338 59.4161 106.338 58.5761V6.92667C106.338 6.37979 106.042 5.87394 105.565 5.60354Z" fill="#343434"/>
</svg>
