<svg width="124" height="79" viewBox="0 0 124 79" fill="none" xmlns="http://www.w3.org/2000/svg">
<path d="M115.494 10.1761C109.85 8.07824 103.986 7.05847 97.5709 7.05847C85.399 7.05847 73.1653 10.8336 61.3346 14.4849C49.7566 18.0568 37.7827 21.7506 26.1446 21.7523C26.1428 21.7523 26.1411 21.7523 26.1393 21.7523C17.5588 21.7523 9.87073 19.7658 2.63867 15.6761C2.09079 15.3686 1.41919 15.3739 0.878379 15.6903C0.334031 16.0066 0 16.5881 0 17.2173V70.2382C0 70.8744 0.342869 71.463 0.897821 71.7776C8.67599 76.1712 16.9349 78.308 26.1446 78.308C38.3147 78.308 50.5501 74.5329 62.3791 70.8833C73.9589 67.3097 85.9345 63.6141 97.5709 63.6141C103.56 63.6141 109.018 64.5614 114.262 66.5108C114.803 66.7123 115.409 66.6345 115.886 66.3058C116.363 65.9735 116.646 65.4327 116.646 64.8548V11.8339C116.646 11.0934 116.186 10.4324 115.494 10.1761ZM113.111 62.3805C108.198 60.834 103.089 60.0794 97.5709 60.0794C85.399 60.0794 73.1653 63.8545 61.3381 67.5058C49.7584 71.0777 37.7827 74.7732 26.1446 74.7732C17.914 74.7732 10.507 72.9476 3.53473 69.1937V20.1493C10.5406 23.6028 17.9653 25.2871 26.1393 25.2871C26.1393 25.2871 26.1428 25.2871 26.1464 25.2871C38.3164 25.2853 50.5484 21.5102 62.3773 17.8624C73.9571 14.2888 85.9345 10.5932 97.5726 10.5932C103.124 10.5932 108.219 11.408 113.113 13.0781V62.3805H113.111Z" fill="#343434"/>
<path d="M86.5991 16.8283C86.5991 17.8021 87.3944 18.4666 88.3664 18.3323C92.5639 17.7508 96.7632 17.5087 100.957 17.7667C101.282 19.0269 101.931 20.1792 102.811 21.1442C103.689 22.1109 104.799 22.8921 106.042 23.4152C106.042 31.8084 106.042 40.2034 106.042 48.5966C104.801 48.7133 103.689 49.2329 102.811 50.0282C101.931 50.8253 101.281 51.8928 100.957 53.114C96.7596 52.856 92.5639 53.1034 88.3664 53.6813C87.3944 53.8139 86.6008 54.74 86.5991 55.7103V55.712C86.5991 56.6859 87.3944 57.3469 88.3664 57.2143C93.0782 56.5604 97.7882 56.3359 102.502 56.7654C103.479 56.8555 104.271 56.168 104.271 55.1889C104.271 54.2151 104.669 53.3791 105.31 52.833C105.952 52.2851 106.835 52.0324 107.809 52.2286C108.787 52.4247 109.577 51.8309 109.577 50.8553C109.577 41.4317 109.577 32.0099 109.577 22.5881C109.577 21.6143 108.787 20.6228 107.809 20.4266C106.834 20.2287 105.952 19.6861 105.31 18.9509C104.669 18.2139 104.271 17.2825 104.271 16.3069C104.271 15.3331 103.477 14.4353 102.502 14.3487C97.7882 13.9192 93.0764 14.1454 88.3664 14.7993C87.3944 14.9337 86.6008 15.8562 86.5991 16.8283Z" fill="#343434"/>
<path d="M28.2778 28.7847C23.566 28.9526 18.8542 28.5814 14.1424 27.4379C13.1651 27.2029 12.3751 27.7649 12.3751 28.7405C12.3751 29.7143 11.9739 30.4884 11.3341 30.932C10.6926 31.3739 9.80887 31.4852 8.83329 31.1211C7.8577 30.7606 7.06592 31.2166 7.06592 32.1904C7.06592 41.6122 7.06592 51.0358 7.06592 60.4576C7.06592 61.4332 7.85947 62.5608 8.83329 62.9231C9.8071 63.2854 10.6926 63.9782 11.3341 64.8124C11.9757 65.6519 12.3751 66.6451 12.3751 67.6207C12.3751 68.5963 13.1651 69.6178 14.1424 69.8529C18.8542 70.9946 23.566 71.3658 28.2778 71.1979C29.2499 71.1643 30.0434 70.3142 30.0434 69.3439C30.0434 69.3439 30.0434 69.3439 30.0434 69.3421C30.0452 68.3701 29.2481 67.6296 28.2778 67.6649C24.0803 67.8151 19.8846 67.5341 15.6854 66.6663C15.3655 65.3603 14.7151 64.1107 13.8349 63.0132C12.9548 61.9157 11.8449 60.9595 10.6024 60.2331C10.6024 51.8382 10.6024 43.445 10.6024 35.0517C11.8449 35.1366 12.9548 34.7902 13.8349 34.1309C14.7151 33.4717 15.3655 32.4926 15.6854 31.3208C19.8828 32.1904 24.0803 32.4679 28.2778 32.3176C29.2499 32.284 30.0452 31.4357 30.0452 30.4637C30.0452 30.4637 30.0452 30.4637 30.0452 30.4619C30.047 29.4898 29.2481 28.7493 28.2778 28.7847Z" fill="#343434"/>
<path d="M63.9627 21.6444C61.9549 21.6444 59.8765 21.9802 57.784 22.6447C46.001 26.4092 37.1146 37.6497 37.1146 48.7947C37.1146 53.54 38.7017 57.8665 41.5896 60.9806C44.5005 64.1177 48.5477 65.8479 52.9873 65.8479C54.9049 65.8479 56.8808 65.5263 58.8568 64.8971C70.4489 61.2086 79.5314 49.4362 79.5314 38.0986C79.5296 28.4099 73.1282 21.6444 63.9627 21.6444ZM57.7857 61.5267C56.1562 62.0481 54.5426 62.3115 52.9891 62.3115C49.5445 62.3115 46.4163 60.9842 44.1841 58.5752C41.9042 56.1186 40.6494 52.6457 40.6511 48.7947C40.6511 39.2809 48.6502 29.2741 58.8603 26.0133C60.6029 25.4601 62.3208 25.1774 63.9644 25.1774C71.1611 25.1774 75.9966 30.3699 75.9984 38.0986C75.9966 47.8226 67.8279 58.3331 57.7857 61.5267Z" fill="#343434"/>
<path d="M61.6492 28.8429C60.9688 28.8429 60.2706 28.9525 59.5708 29.1681C57.8087 29.7107 56.0484 30.2479 54.2881 30.7693C54.251 30.7799 54.2227 30.8064 54.1838 30.8188C54.1114 30.8453 54.046 30.8824 53.9788 30.9178C53.8551 30.9832 53.7438 31.0556 53.6413 31.1458C53.5847 31.197 53.5317 31.2465 53.4822 31.3031C53.3868 31.4109 53.3108 31.5275 53.2436 31.6548C53.2118 31.7149 53.1747 31.7679 53.1499 31.8333C53.0739 32.0312 53.0227 32.2415 53.0227 32.4642V43.4908C51.6901 43.8796 50.3557 44.2826 49.0231 44.6449C48.0811 44.9012 47.5244 45.8714 47.7807 46.8152C47.9945 47.5999 48.7068 48.1178 49.4844 48.1178C49.6382 48.1178 49.7937 48.0966 49.9492 48.0559C50.9725 47.7784 51.9976 47.4621 53.0227 47.1687V48.7947C51.6866 49.1853 50.3487 49.5829 49.0231 49.9434C48.0811 50.1997 47.5244 51.17 47.7807 52.1138C47.9945 52.8985 48.7068 53.4163 49.4844 53.4163C49.6364 53.4163 49.7937 53.3951 49.9492 53.3545C50.9708 53.077 51.9976 52.7677 53.0227 52.4725V55.1095C53.0227 56.085 53.8145 56.8768 54.7901 56.8768C55.7674 56.8768 56.5574 56.085 56.5574 55.1095V51.451C58.5386 50.8554 60.5092 50.2492 62.4463 49.6501L64.1429 49.1269C65.0761 48.8389 65.5993 47.8491 65.3129 46.9177C65.0249 45.9846 64.0351 45.4667 63.1037 45.7477L61.4018 46.2726C59.8076 46.764 58.1816 47.2624 56.5556 47.7555V46.1472C56.7253 46.0959 56.895 46.0517 57.0646 46.0005C57.0788 45.9969 57.0876 45.9846 57.1018 45.981C58.2718 45.6293 59.44 45.2776 60.6117 44.9153C64.2861 43.7806 67.1651 39.9914 67.1651 36.2853V34.5285C67.1651 31.2359 64.8446 28.8429 61.6492 28.8429ZM63.6304 36.287C63.6304 38.4167 61.734 40.8733 59.5725 41.5396C58.5669 41.8489 57.5613 42.1582 56.5574 42.4604V33.7809C57.9094 33.3762 59.2597 32.9609 60.6135 32.5455C62.3508 32.0171 63.6322 32.8283 63.6322 34.5303V36.287H63.6304Z" fill="#343434"/>
<path d="M122.817 6.51931C102.123 -5.1718 81.3879 1.22606 61.3389 7.4136C41.1096 13.6577 22.0044 19.5536 2.63767 8.60833C1.78933 8.12938 0.711241 8.42983 0.230518 9.27817C-0.250205 10.1283 0.0502459 11.2064 0.900348 11.6871C21.5926 23.3764 42.3274 16.9803 62.3799 10.7928C82.2928 4.6459 101.119 -1.16342 120.182 9.1032V68.149C120.182 69.1264 120.972 69.9164 121.949 69.9164C122.924 69.9164 123.716 69.1264 123.716 68.149V8.05868C123.716 7.42243 123.372 6.8339 122.817 6.51931Z" fill="#343434"/>
</svg>
