<svg width="184" height="117" viewBox="0 0 184 117" fill="none" xmlns="http://www.w3.org/2000/svg">
<path d="M171.539 15.1141C163.157 11.9983 154.447 10.4836 144.918 10.4836C126.84 10.4836 108.67 16.0906 91.098 21.5139C73.9017 26.819 56.1173 32.3053 38.8316 32.3079C38.829 32.3079 38.8264 32.3079 38.8238 32.3079C26.0794 32.3079 14.6606 29.3574 3.91913 23.2831C3.10538 22.8264 2.10788 22.8343 1.30462 23.3041C0.496125 23.774 0 24.6377 0 25.5722V104.322C0 105.267 0.509251 106.141 1.3335 106.609C12.8861 113.134 25.1528 116.308 38.8316 116.308C56.9074 116.308 75.0803 110.701 92.6494 105.28C109.848 99.9726 127.635 94.4837 144.918 94.4837C153.815 94.4837 161.921 95.8907 169.709 98.786C170.512 99.0853 171.413 98.9698 172.121 98.4815C172.83 97.988 173.25 97.1848 173.25 96.3264V17.5764C173.25 16.4765 172.568 15.4948 171.539 15.1141ZM168 92.6514C160.703 90.3545 153.114 89.2337 144.918 89.2337C126.84 89.2337 108.67 94.8407 91.1033 100.264C73.9043 105.569 56.1173 111.058 38.8316 111.058C26.607 111.058 15.6056 108.346 5.25 102.771V29.927C15.6555 35.0563 26.6831 37.5579 38.8238 37.5579C38.8238 37.5579 38.829 37.5579 38.8343 37.5579C56.91 37.5553 75.0777 31.9483 92.6468 26.5303C109.846 21.2225 127.635 15.7336 144.921 15.7336C153.166 15.7336 160.734 16.9438 168.003 19.4244V92.6514H168Z" fill="#343434"/>
<path d="M128.622 24.9945C128.622 26.4409 129.804 27.4279 131.247 27.2284C137.482 26.3648 143.719 26.0051 149.948 26.3884C150.431 28.26 151.394 29.9715 152.702 31.4048C154.006 32.8406 155.655 34.0009 157.5 34.7779C157.5 47.244 157.5 59.7128 157.5 72.1789C155.657 72.3521 154.006 73.1239 152.702 74.3051C151.394 75.489 150.428 77.0745 149.948 78.8884C143.714 78.5051 137.482 78.8726 131.247 79.731C129.804 79.9279 128.625 81.3034 128.622 82.7445V82.7471C128.622 84.1935 129.804 85.1753 131.247 84.9784C138.246 84.0071 145.241 83.6738 152.242 84.3116C153.694 84.4455 154.87 83.4244 154.87 81.9701C154.87 80.5238 155.46 79.2821 156.413 78.471C157.366 77.6573 158.679 77.2819 160.125 77.5733C161.577 77.8646 162.75 76.9826 162.75 75.5336C162.75 61.5371 162.75 47.5433 162.75 33.5494C162.75 32.103 161.577 30.6304 160.125 30.339C158.676 30.045 157.366 29.2391 156.413 28.1471C155.46 27.0525 154.87 25.6691 154.87 24.2201C154.87 22.7738 153.691 21.4402 152.242 21.3116C145.241 20.6737 138.243 21.0097 131.247 21.981C129.804 22.1805 128.625 23.5507 128.622 24.9945Z" fill="#343434"/>
<path d="M42 42.7527C35.0018 43.0021 28.0035 42.4509 21.0053 40.7525C19.5536 40.4034 18.3803 41.2381 18.3803 42.6871C18.3803 44.1335 17.7844 45.2832 16.8341 45.9421C15.8813 46.5984 14.5688 46.7637 13.1198 46.223C11.6708 45.6875 10.4948 46.3647 10.4948 47.8111C10.4948 61.805 10.4948 75.8015 10.4948 89.7954C10.4948 91.2444 11.6734 92.9191 13.1198 93.4573C14.5661 93.9954 15.8813 95.0244 16.8341 96.2634C17.787 97.5103 18.3803 98.9855 18.3803 100.435C18.3803 101.884 19.5536 103.401 21.0053 103.75C28.0035 105.446 35.0018 105.997 42 105.748C43.4438 105.698 44.6224 104.435 44.6224 102.994C44.6224 102.994 44.6224 102.994 44.6224 102.991C44.625 101.548 43.4411 100.448 42 100.5C35.7656 100.723 29.5339 100.306 23.2969 99.017C22.8218 97.0771 21.8558 95.2213 20.5485 93.5911C19.2413 91.961 17.5928 90.5409 15.7474 89.462C15.7474 76.9933 15.7474 64.5271 15.7474 52.061C17.5928 52.187 19.2413 51.6725 20.5485 50.6934C21.8558 49.7142 22.8218 48.26 23.2969 46.5196C29.5313 47.8111 35.7656 48.2232 42 48.0001C43.4438 47.9502 44.625 46.6902 44.625 45.2465C44.625 45.2465 44.625 45.2465 44.625 45.2439C44.6276 43.8001 43.4411 42.7002 42 42.7527Z" fill="#343434"/>
<path d="M95.0014 32.1476C92.0194 32.1476 88.9324 32.6463 85.8244 33.6333C68.3235 39.2246 55.125 55.9196 55.125 72.4729C55.125 79.521 57.4823 85.947 61.7715 90.5722C66.0949 95.2316 72.1062 97.8015 78.7002 97.8015C81.5483 97.8015 84.483 97.3237 87.4178 96.3892C104.635 90.9109 118.125 73.4257 118.125 56.5863C118.122 42.1961 108.615 32.1476 95.0014 32.1476ZM85.827 91.3834C83.4068 92.1577 81.0102 92.5489 78.7028 92.5489C73.5867 92.5489 68.9404 90.5775 65.625 86.9996C62.2388 83.3509 60.375 78.1927 60.3777 72.4729C60.3777 58.3425 72.2584 43.4797 87.423 38.6366C90.0113 37.815 92.5628 37.395 95.004 37.395C105.693 37.395 112.875 45.1072 112.878 56.5863C112.875 71.0291 100.742 86.64 85.827 91.3834Z" fill="#343434"/>
<path d="M91.5653 42.8392C90.5547 42.8392 89.5178 43.002 88.4783 43.3222C85.8612 44.1281 83.2467 44.9261 80.6322 45.7005C80.577 45.7162 80.535 45.7556 80.4773 45.774C80.3697 45.8134 80.2725 45.8685 80.1728 45.921C79.989 46.0181 79.8237 46.1257 79.6714 46.2596C79.5874 46.3357 79.5087 46.4092 79.4352 46.4932C79.2934 46.6534 79.1805 46.8266 79.0808 47.0156C79.0335 47.1049 78.9784 47.1836 78.9417 47.2807C78.8288 47.5747 78.7527 47.8871 78.7527 48.2179V64.5952C76.7734 65.1727 74.7915 65.7712 72.8123 66.3094C71.4132 66.69 70.5863 68.1311 70.9669 69.5329C71.2845 70.6984 72.3424 71.4675 73.4974 71.4675C73.7258 71.4675 73.9568 71.436 74.1878 71.3756C75.7077 70.9635 77.2302 70.4936 78.7527 70.0579V72.4729C76.7682 73.053 74.781 73.6436 72.8123 74.1791C71.4132 74.5597 70.5863 76.0009 70.9669 77.4026C71.2845 78.5681 72.3424 79.3372 73.4974 79.3372C73.7232 79.3372 73.9568 79.3057 74.1878 79.2454C75.705 78.8332 77.2302 78.3739 78.7527 77.9355V81.852C78.7527 83.301 79.9287 84.477 81.3777 84.477C82.8293 84.477 84.0027 83.301 84.0027 81.852V76.4182C86.9453 75.5336 89.8722 74.6332 92.7492 73.7434L95.2692 72.9664C96.6552 72.5385 97.4322 71.0685 97.0069 69.6851C96.579 68.2991 95.109 67.53 93.7257 67.9474L91.1978 68.727C88.83 69.4567 86.415 70.197 84 70.9294V68.5406C84.252 68.4645 84.504 68.3989 84.756 68.3227C84.777 68.3175 84.7902 68.2991 84.8112 68.2939C86.5489 67.7715 88.284 67.2491 90.0244 66.711C95.4818 65.0257 99.7579 59.3977 99.7579 53.8931V51.2839C99.7579 46.3935 96.3113 42.8392 91.5653 42.8392ZM94.5079 53.8957C94.5079 57.0589 91.6913 60.7076 88.4809 61.6972C86.9873 62.1566 85.4937 62.616 84.0027 63.0649V50.1735C86.0108 49.5724 88.0163 48.9555 90.027 48.3386C92.6074 47.5537 94.5105 48.7586 94.5105 51.2865V53.8957H94.5079Z" fill="#343434"/>
<path d="M182.414 9.68289C151.678 -7.68149 120.882 1.82102 91.1038 11.0111C61.058 20.2853 32.6817 29.0423 3.91697 12.7856C2.65697 12.0743 1.05572 12.5205 0.341715 13.7805C-0.372285 15.0431 0.0739641 16.6444 1.33659 17.3584C32.0701 34.7202 62.8666 25.2203 92.6499 16.0301C122.226 6.90039 150.187 -1.72798 178.501 13.5207V101.219C178.501 102.671 179.674 103.844 181.126 103.844C182.575 103.844 183.751 102.671 183.751 101.219V11.9693C183.751 11.0243 183.239 10.1501 182.414 9.68289Z" fill="#343434"/>
</svg>
