<svg width="85" height="24" viewBox="0 0 85 24" fill="none" xmlns="http://www.w3.org/2000/svg">
<path d="M6.80643 2.82066H2.4279V11.0174H0V0.946122H6.80643V2.82066Z" fill="black"/>
<path d="M12.917 9.13597H9.58987L9.00883 11.0174H6.41492L10.1087 0.946122H12.3913L16.1127 11.0174H13.5049L12.917 9.13597ZM10.1709 7.26144H12.336L11.25 3.7683L10.1709 7.26144Z" fill="black"/>
<path d="M22.4654 3.74063C22.4654 3.42244 22.3409 3.16651 22.0918 2.97283C21.8474 2.77915 21.5154 2.68231 21.0958 2.68231C20.7038 2.68231 20.3879 2.77685 20.1481 2.96592C19.913 3.15037 19.7954 3.39478 19.7954 3.69913H17.3744C17.3744 3.14576 17.5312 2.65003 17.8447 2.21195C18.1629 1.77387 18.6102 1.43262 19.1867 1.18822C19.7631 0.939205 20.3995 0.814697 21.0958 0.814697C22.2947 0.814697 23.2262 1.06602 23.8903 1.56866C24.5589 2.0713 24.8933 2.77454 24.8933 3.67838C24.8933 4.13952 24.7572 4.56146 24.4852 4.94421C24.2177 5.32234 23.8465 5.62208 23.3715 5.84343C23.9156 6.03711 24.3307 6.33224 24.6166 6.72882C24.9071 7.12079 25.0524 7.6096 25.0524 8.19524C25.0524 9.09908 24.6927 9.81846 23.9733 10.3534C23.2539 10.8837 22.2947 11.1488 21.0958 11.1488C19.9844 11.1488 19.0621 10.8883 18.3289 10.3672C17.5957 9.84151 17.2291 9.12675 17.2291 8.22291H19.6639C19.6639 8.52265 19.7977 8.77628 20.0651 8.98379C20.3326 9.1867 20.6761 9.28815 21.0958 9.28815C21.5477 9.28815 21.9143 9.18208 22.1956 8.96996C22.4769 8.75783 22.6175 8.48115 22.6175 8.13991C22.6175 7.64188 22.4976 7.29141 22.2578 7.08851C22.0181 6.88099 21.6676 6.77724 21.2064 6.77724H19.913V4.97879H21.2895C22.0734 4.95573 22.4654 4.54301 22.4654 3.74063Z" fill="black"/>
<path d="M33.4386 6.74957H29.6204V9.1498H34.1304V11.0174H27.1925V0.946122H34.1442V2.82066H29.6204V4.94421H33.4386V6.74957Z" fill="black"/>
<path d="M44.3013 0.946122V11.0174H41.8734V2.82066H39.6115L39.4455 6.20312C39.3763 7.3698 39.2149 8.30131 38.9613 8.99763C38.7076 9.69395 38.3456 10.2035 37.8753 10.5263C37.4095 10.8445 36.7732 11.0082 35.9662 11.0174H35.3159V9.1498L35.6549 9.11522C36.1391 9.04605 36.4896 8.75092 36.7063 8.22983C36.923 7.70413 37.0637 6.82105 37.1282 5.58058L37.3012 0.946122H44.3013Z" fill="black"/>
<path d="M48.9662 4.41159H50.2182C51.0159 4.41159 51.7215 4.54763 52.3348 4.8197C52.9481 5.09177 53.4185 5.47682 53.7459 5.97485C54.0779 6.46827 54.2439 7.03548 54.2439 7.67646C54.2439 8.66791 53.875 9.4726 53.1372 10.0905C52.404 10.7085 51.4171 11.0174 50.1766 11.0174H46.5313V0.946122H48.9662V4.41159ZM48.9662 6.27921V9.1498H50.2112C50.7047 9.1498 51.0943 9.01146 51.3802 8.73478C51.6707 8.45809 51.816 8.10071 51.816 7.66263C51.816 7.2476 51.673 6.91327 51.3871 6.65965C51.1012 6.40602 50.7047 6.27921 50.1974 6.27921H48.9662Z" fill="black"/>
<path d="M59.6213 7.03317H58.473V11.0174H56.0451V0.946122H58.473V4.84045H59.4068L61.3436 0.946122H64.2834L61.5165 5.59441L64.6292 11.0174H61.7586L59.6213 7.03317Z" fill="black"/>
<path d="M71.8465 0.946122H74.2744V11.0174H71.8465V4.66752L68.2289 11.0174H65.801V0.946122H68.2289V7.30294L71.8465 0.946122Z" fill="black"/>
<path d="M84.888 11.0174H82.474V6.81182H78.8978V11.0174H76.4699V0.946122H78.8978V4.94421H82.474V0.946122H84.888V11.0174Z" fill="black"/>
<path d="M3.58967 16.8227H1.00095V21.6422H0.0360107V16.029H3.58967V16.8227Z" fill="black"/>
<path d="M10.0166 18.8979C10.0166 19.7521 9.82115 20.4404 9.43033 20.9626C9.03952 21.4849 8.51036 21.746 7.84286 21.746C7.16152 21.746 6.62545 21.5298 6.23463 21.0975V23.8004H5.27488V16.029H6.15163L6.19832 16.6515C6.58913 16.1673 7.13213 15.9252 7.82729 15.9252C8.50171 15.9252 9.03433 16.1794 9.42515 16.6878C9.81942 17.1962 10.0166 17.9035 10.0166 18.8097V18.8979ZM9.05681 18.7889C9.05681 18.156 8.92193 17.6562 8.65216 17.2896C8.38239 16.923 8.01233 16.7397 7.54196 16.7397C6.96093 16.7397 6.52515 16.9974 6.23463 17.5127V20.1948C6.52169 20.7067 6.96093 20.9626 7.55234 20.9626C8.01233 20.9626 8.3772 20.781 8.64697 20.4179C8.9202 20.0513 9.05681 19.5083 9.05681 18.7889Z" fill="black"/>
<path d="M13.8651 20.2363L15.1724 16.029H16.1996L13.9429 22.5086C13.5936 23.4424 13.0385 23.9093 12.2776 23.9093L12.096 23.8937L11.7381 23.8263V23.0481L11.9975 23.0689C12.3226 23.0689 12.5751 23.0032 12.7549 22.8717C12.9382 22.7403 13.0886 22.4999 13.2062 22.1506L13.4189 21.58L11.4164 16.029H12.4644L13.8651 20.2363Z" fill="black"/>
<path d="M20.9975 17.5646C20.9975 17.3017 20.8972 17.0942 20.6966 16.942C20.496 16.7864 20.2211 16.7086 19.8718 16.7086C19.5328 16.7086 19.2492 16.7968 19.021 16.9732C18.7962 17.1496 18.6838 17.3571 18.6838 17.5957H17.7292C17.7292 17.1081 17.9332 16.7086 18.3414 16.3973C18.7495 16.0861 19.2596 15.9304 19.8718 15.9304C20.5289 15.9304 21.0408 16.0722 21.4074 16.3558C21.774 16.636 21.9573 17.0372 21.9573 17.5594C21.9573 17.8119 21.8812 18.0436 21.729 18.2546C21.5768 18.4655 21.3607 18.6333 21.0805 18.7578C21.7342 18.9791 22.061 19.4149 22.061 20.0651C22.061 20.5804 21.8622 20.9885 21.4644 21.2894C21.0667 21.5903 20.5358 21.7408 19.8718 21.7408C19.225 21.7408 18.6907 21.5834 18.2687 21.2687C17.8502 20.9505 17.641 20.5216 17.641 19.9821H18.5956C18.5956 20.2553 18.7166 20.4905 18.9587 20.6877C19.2043 20.8813 19.5086 20.9782 19.8718 20.9782C20.2384 20.9782 20.5341 20.8934 20.7589 20.724C20.9837 20.5545 21.0961 20.3349 21.0961 20.0651C21.0961 19.7504 21.001 19.5256 20.8108 19.3907C20.624 19.2524 20.3318 19.1832 19.934 19.1832H18.9743V18.3739H20.017C20.6707 18.3566 20.9975 18.0868 20.9975 17.5646Z" fill="black"/>
<path d="M23.9019 18.7837C23.9019 18.2338 24.0091 17.7392 24.2235 17.3C24.4414 16.8608 24.7423 16.5218 25.1262 16.2832C25.5136 16.0446 25.9545 15.9252 26.4491 15.9252C27.2134 15.9252 27.8308 16.1898 28.3012 16.719C28.775 17.2481 29.0119 17.9519 29.0119 18.8304V18.8979C29.0119 19.4443 28.9064 19.9354 28.6954 20.3712C28.4879 20.8035 28.1887 21.1407 27.7979 21.3828C27.4106 21.6249 26.9644 21.746 26.4595 21.746C25.6986 21.746 25.0812 21.4814 24.6074 20.9522C24.1371 20.4231 23.9019 19.7227 23.9019 18.8512V18.7837ZM24.8668 18.8979C24.8668 19.5204 25.0103 20.0202 25.2974 20.3971C25.5879 20.7741 25.9753 20.9626 26.4595 20.9626C26.9471 20.9626 27.3345 20.7724 27.6215 20.3919C27.9086 20.0081 28.0521 19.472 28.0521 18.7837C28.0521 18.1681 27.9051 17.6701 27.6112 17.2896C27.3207 16.9057 26.9333 16.7138 26.4491 16.7138C25.9753 16.7138 25.5931 16.9023 25.3026 17.2793C25.0121 17.6562 24.8668 18.1958 24.8668 18.8979Z" fill="black"/>
<path d="M31.1536 21.6422V16.029H33.3429C34.0899 16.029 34.6623 16.1604 35.0601 16.4233C35.4613 16.6827 35.6618 17.0648 35.6618 17.5698C35.6618 17.8292 35.584 18.0643 35.4284 18.2753C35.2728 18.4828 35.0428 18.6419 34.7384 18.7526C35.0774 18.8321 35.3488 18.9878 35.5529 19.2195C35.7604 19.4512 35.8642 19.7279 35.8642 20.0496C35.8642 20.5649 35.674 20.9592 35.2935 21.2324C34.9165 21.5056 34.3822 21.6422 33.6905 21.6422H31.1536ZM32.1134 19.178V20.8692H33.7008C34.102 20.8692 34.4012 20.7949 34.5983 20.6462C34.7989 20.4974 34.8992 20.2882 34.8992 20.0184C34.8992 19.4581 34.4877 19.178 33.6645 19.178H32.1134ZM32.1134 18.4102H33.3533C34.2525 18.4102 34.7021 18.1474 34.7021 17.6217C34.7021 17.096 34.2767 16.8245 33.4259 16.8072H32.1134V18.4102Z" fill="black"/>
<path d="M37.731 18.7837C37.731 18.2338 37.8382 17.7392 38.0526 17.3C38.2705 16.8608 38.5714 16.5218 38.9553 16.2832C39.3426 16.0446 39.7836 15.9252 40.2782 15.9252C41.0425 15.9252 41.6599 16.1898 42.1302 16.719C42.6041 17.2481 42.841 17.9519 42.841 18.8304V18.8979C42.841 19.4443 42.7355 19.9354 42.5245 20.3712C42.317 20.8035 42.0178 21.1407 41.627 21.3828C41.2397 21.6249 40.7935 21.746 40.2886 21.746C39.5277 21.746 38.9103 21.4814 38.4365 20.9522C37.9661 20.4231 37.731 19.7227 37.731 18.8512V18.7837ZM38.6959 18.8979C38.6959 19.5204 38.8394 20.0202 39.1265 20.3971C39.417 20.7741 39.8044 20.9626 40.2886 20.9626C40.7762 20.9626 41.1636 20.7724 41.4506 20.3919C41.7377 20.0081 41.8812 19.472 41.8812 18.7837C41.8812 18.1681 41.7342 17.6701 41.4403 17.2896C41.1497 16.9057 40.7624 16.7138 40.2782 16.7138C39.8044 16.7138 39.4222 16.9023 39.1317 17.2793C38.8412 17.6562 38.6959 18.1958 38.6959 18.8979Z" fill="black"/>
<path d="M47.2239 21.746C46.463 21.746 45.8439 21.497 45.3666 20.9989C44.8893 20.4974 44.6507 19.8282 44.6507 18.9912V18.8149C44.6507 18.258 44.7562 17.7617 44.9671 17.3259C45.1816 16.8867 45.479 16.5443 45.8595 16.2988C46.2434 16.0497 46.6584 15.9252 47.1045 15.9252C47.8343 15.9252 48.4015 16.1656 48.8061 16.6463C49.2108 17.1271 49.4131 17.8153 49.4131 18.7111V19.1106H45.6104C45.6243 19.6639 45.7851 20.1118 46.0929 20.4542C46.4042 20.7931 46.7984 20.9626 47.2757 20.9626C47.6147 20.9626 47.9017 20.8934 48.1369 20.7551C48.3721 20.6168 48.5779 20.4335 48.7543 20.2052L49.3405 20.6617C48.8701 21.3846 48.1646 21.746 47.2239 21.746ZM47.1045 16.7138C46.7172 16.7138 46.3921 16.8556 46.1292 17.1392C45.8664 17.4193 45.7038 17.8136 45.6416 18.322H48.4534V18.2494C48.4257 17.7617 48.2943 17.3847 48.0591 17.1184C47.8239 16.8487 47.5057 16.7138 47.1045 16.7138Z" fill="black"/>
<path d="M59.0349 16.8072H57.1517V21.6422H56.1919V16.8072H54.3451V16.029H59.0349V16.8072Z" fill="black"/>
<path d="M64.2011 21.6422C64.1458 21.5315 64.1008 21.3344 64.0662 21.0508C63.6201 21.5142 63.0875 21.746 62.4684 21.746C61.915 21.746 61.4602 21.5903 61.104 21.2791C60.7512 20.9643 60.5748 20.5666 60.5748 20.0859C60.5748 19.5014 60.7962 19.0483 61.2389 18.7267C61.685 18.4016 62.311 18.239 63.1169 18.239H64.0507V17.798C64.0507 17.4626 63.9504 17.1962 63.7498 16.9991C63.5492 16.7985 63.2535 16.6982 62.8627 16.6982C62.5203 16.6982 62.2332 16.7847 62.0015 16.9576C61.7698 17.1305 61.6539 17.3398 61.6539 17.5853H60.689C60.689 17.3052 60.7875 17.0354 60.9847 16.776C61.1853 16.5132 61.455 16.3057 61.794 16.1535C62.1364 16.0013 62.5116 15.9252 62.9197 15.9252C63.5665 15.9252 64.0731 16.0878 64.4398 16.4129C64.8064 16.7345 64.9966 17.179 65.0104 17.7462V20.3297C65.0104 20.845 65.0761 21.2549 65.2076 21.5592V21.6422H64.2011ZM62.6084 20.9107C62.9093 20.9107 63.1947 20.8329 63.4644 20.6773C63.7342 20.5216 63.9296 20.3193 64.0507 20.0703V18.9186H63.2984C62.1225 18.9186 61.5346 19.2627 61.5346 19.951C61.5346 20.2519 61.6349 20.4871 61.8355 20.6565C62.0361 20.826 62.2937 20.9107 62.6084 20.9107Z" fill="black"/>
<path d="M69.1132 19.2506H68.4128V21.6422H67.4479V16.029H68.4128V18.405H69.0405L70.9289 16.029H72.091L69.8706 18.7267L72.2777 21.6422H71.0586L69.1132 19.2506Z" fill="black"/>
<path d="M76.1211 20.9626C76.4635 20.9626 76.7626 20.8589 77.0186 20.6513C77.2745 20.4438 77.4163 20.1844 77.444 19.8732H78.3518C78.3345 20.1948 78.2239 20.5009 78.0198 20.7914C77.8158 21.0819 77.5425 21.3137 77.2001 21.4866C76.8612 21.6595 76.5015 21.746 76.1211 21.746C75.3567 21.746 74.748 21.4918 74.295 20.9834C73.8453 20.4715 73.6205 19.7729 73.6205 18.8875V18.7267C73.6205 18.1802 73.7208 17.6943 73.9214 17.2689C74.122 16.8435 74.4091 16.5132 74.7826 16.278C75.1596 16.0428 75.604 15.9252 76.1159 15.9252C76.7453 15.9252 77.2676 16.1137 77.6826 16.4907C78.1011 16.8677 78.3242 17.3571 78.3518 17.9589H77.444C77.4163 17.5957 77.278 17.2983 77.0289 17.0666C76.7834 16.8314 76.479 16.7138 76.1159 16.7138C75.6282 16.7138 75.2495 16.8902 74.9798 17.2429C74.7134 17.5923 74.5803 18.0989 74.5803 18.763V18.9445C74.5803 19.5913 74.7134 20.0893 74.9798 20.4386C75.2461 20.788 75.6265 20.9626 76.1211 20.9626Z" fill="black"/>
<path d="M83.9124 16.029H84.8721V21.6422H83.9124V17.549L81.3236 21.6422H80.3639V16.029H81.3236V20.1274L83.9124 16.029Z" fill="black"/>
</svg>
