<svg width="768" height="507" viewBox="0 0 768 507" fill="none" xmlns="http://www.w3.org/2000/svg">
<path d="M346.036 276.282C329.128 270.677 311.559 267.952 292.337 267.952C255.868 267.952 219.214 278.039 183.767 287.796C149.078 297.34 113.203 307.21 78.3331 307.215C78.3278 307.215 78.3225 307.215 78.3172 307.215C52.6086 307.215 29.5742 301.906 7.90586 290.979C6.26432 290.157 4.25211 290.171 2.63175 291.016C1.00081 291.862 0 293.415 0 295.097V436.771C0 438.471 1.02729 440.043 2.69001 440.884C25.9945 452.624 50.7394 458.334 78.3331 458.334C114.796 458.334 151.456 448.246 186.897 438.494C221.592 428.946 257.473 419.071 292.337 419.071C310.282 419.071 326.634 421.602 342.345 426.811C343.966 427.349 345.782 427.142 347.212 426.263C348.641 425.375 349.489 423.93 349.489 422.386V280.712C349.489 278.733 348.112 276.967 346.036 276.282ZM338.898 415.775C324.177 411.642 308.869 409.626 292.337 409.626C255.868 409.626 219.214 419.713 183.778 429.47C149.083 439.014 113.203 448.889 78.3331 448.889C53.673 448.889 31.4805 444.01 10.5906 433.98V302.931C31.5811 312.159 53.8266 316.659 78.3172 316.659C78.3172 316.659 78.3278 316.659 78.3384 316.659C114.802 316.655 151.45 306.568 186.892 296.82C221.586 287.272 257.473 277.397 292.342 277.397C308.974 277.397 324.241 279.574 338.903 284.037V415.775H338.898Z" fill="#343434"/>
<path d="M259.464 294.058C259.464 296.66 261.847 298.436 264.759 298.077C277.335 296.523 289.917 295.876 302.483 296.566C303.457 299.933 305.4 303.012 308.037 305.59C310.669 308.173 313.994 310.261 317.717 311.659C317.717 334.086 317.717 356.517 317.717 378.944C314 379.256 310.669 380.644 308.037 382.769C305.4 384.899 303.452 387.752 302.483 391.015C289.906 390.325 277.335 390.987 264.759 392.531C261.847 392.885 259.469 395.36 259.464 397.952V397.957C259.464 400.559 261.847 402.325 264.759 401.971C278.876 400.224 292.988 399.624 307.111 400.772C310.039 401.012 312.411 399.175 312.411 396.559C312.411 393.957 313.603 391.723 315.525 390.264C317.447 388.8 320.095 388.125 323.012 388.649C325.941 389.173 328.308 387.586 328.308 384.98C328.308 359.799 328.308 334.624 328.308 309.448C328.308 306.846 325.941 304.197 323.012 303.673C320.089 303.144 317.447 301.694 315.525 299.73C313.603 297.76 312.411 295.272 312.411 292.665C312.411 290.063 310.034 287.664 307.111 287.432C292.988 286.285 278.871 286.889 264.759 288.637C261.847 288.995 259.469 291.461 259.464 294.058Z" fill="#343434"/>
<path d="M84.7244 326.006C70.6072 326.455 56.49 325.463 42.3727 322.408C39.4444 321.779 37.0774 323.281 37.0774 325.888C37.0774 328.49 35.8754 330.559 33.9585 331.744C32.0363 332.924 29.3887 333.222 26.4657 332.249C23.5427 331.286 21.1704 332.504 21.1704 335.106C21.1704 360.282 21.1704 385.462 21.1704 410.637C21.1704 413.244 23.548 416.257 26.4657 417.225C29.3834 418.193 32.0363 420.045 33.9585 422.274C35.8807 424.517 37.0774 427.171 37.0774 429.778C37.0774 432.384 39.4444 435.114 42.3727 435.742C56.49 438.793 70.6072 439.784 84.7244 439.336C87.6368 439.246 90.0144 436.975 90.0144 434.382C90.0144 434.382 90.0144 434.382 90.0144 434.377C90.0197 431.78 87.6315 429.801 84.7244 429.896C72.1481 430.297 59.5771 429.546 46.9955 427.227C46.0371 423.737 44.0884 420.399 41.4513 417.466C38.8143 414.533 35.4889 411.979 31.7663 410.038C31.7663 387.606 31.7663 365.179 31.7663 342.752C35.4889 342.979 38.8143 342.053 41.4513 340.292C44.0884 338.53 46.0371 335.914 46.9955 332.783C59.5718 335.106 72.1481 335.848 84.7244 335.446C87.6368 335.357 90.0197 333.09 90.0197 330.492C90.0197 330.492 90.0197 330.492 90.0197 330.488C90.025 327.89 87.6315 325.912 84.7244 326.006Z" fill="#343434"/>
<path d="M191.642 306.927C185.626 306.927 179.399 307.824 173.13 309.599C137.826 319.658 111.201 349.693 111.201 379.473C111.201 392.153 115.956 403.713 124.609 412.034C133.33 420.417 145.456 425.04 158.758 425.04C164.503 425.04 170.424 424.181 176.344 422.499C211.075 412.644 238.288 381.187 238.288 350.893C238.283 325.004 219.103 306.927 191.642 306.927ZM173.135 413.494C168.253 414.887 163.418 415.59 158.763 415.59C148.443 415.59 139.07 412.044 132.382 405.607C125.551 399.043 121.792 389.763 121.797 379.473C121.797 354.052 145.763 327.313 176.354 318.6C181.575 317.122 186.723 316.367 191.647 316.367C213.21 316.367 227.697 330.241 227.703 350.893C227.697 376.876 203.223 404.96 173.135 413.494Z" fill="#343434"/>
<path d="M184.71 326.161C182.671 326.161 180.58 326.454 178.483 327.03C173.203 328.48 167.929 329.915 162.655 331.308C162.544 331.337 162.459 331.408 162.343 331.441C162.126 331.511 161.93 331.611 161.728 331.705C161.358 331.88 161.024 332.073 160.717 332.314C160.548 332.451 160.389 332.583 160.24 332.735C159.954 333.023 159.727 333.334 159.526 333.674C159.43 333.835 159.319 333.977 159.245 334.151C159.017 334.68 158.864 335.242 158.864 335.837V365.301C154.871 366.34 150.873 367.416 146.88 368.384C144.058 369.069 142.39 371.662 143.158 374.184C143.799 376.28 145.933 377.664 148.262 377.664C148.723 377.664 149.189 377.607 149.655 377.499C152.721 376.757 155.792 375.912 158.864 375.128V379.473C154.86 380.516 150.852 381.579 146.88 382.542C144.058 383.227 142.39 385.82 143.158 388.342C143.799 390.438 145.933 391.822 148.262 391.822C148.718 391.822 149.189 391.765 149.655 391.657C152.716 390.915 155.792 390.089 158.864 389.3V396.346C158.864 398.953 161.236 401.069 164.159 401.069C167.087 401.069 169.454 398.953 169.454 396.346V386.571C175.39 384.979 181.294 383.359 187.098 381.758L192.182 380.361C194.977 379.591 196.545 376.946 195.687 374.458C194.824 371.964 191.859 370.58 189.068 371.331L183.969 372.734C179.192 374.047 174.321 375.378 169.449 376.696V372.399C169.957 372.262 170.466 372.144 170.974 372.007C171.016 371.997 171.043 371.964 171.085 371.955C174.591 371.015 178.091 370.075 181.602 369.107C192.61 366.075 201.236 355.95 201.236 346.047V341.353C201.236 332.555 194.284 326.161 184.71 326.161ZM190.646 346.052C190.646 351.742 184.964 358.307 178.488 360.087C175.475 360.913 172.462 361.74 169.454 362.547V339.355C173.505 338.274 177.551 337.164 181.607 336.054C186.812 334.642 190.651 336.81 190.651 341.358V346.052H190.646Z" fill="#343434"/>
<path d="M367.976 266.512C305.974 235.273 243.849 252.368 183.78 268.901C123.17 285.586 65.9278 301.34 7.90209 272.094C5.36035 270.814 2.13023 271.617 0.689911 273.883C-0.750406 276.155 0.14979 279.036 2.69682 280.32C64.694 311.555 126.818 294.464 186.899 277.931C246.561 261.506 302.966 245.983 360.081 273.416V431.189C360.081 433.8 362.448 435.911 365.376 435.911C368.299 435.911 370.671 433.8 370.671 431.189V270.625C370.671 268.925 369.639 267.352 367.976 266.512Z" fill="#343434"/>
<path d="M751.413 384.336C740.029 380.562 728.2 378.727 715.258 378.727C690.704 378.727 666.026 385.519 642.16 392.088C618.805 398.513 594.65 405.159 571.173 405.162C571.17 405.162 571.166 405.162 571.163 405.162C553.854 405.162 538.345 401.588 523.756 394.231C522.651 393.677 521.296 393.687 520.205 394.256C519.107 394.825 518.433 395.871 518.433 397.003V492.39C518.433 493.534 519.125 494.593 520.244 495.159C535.935 503.063 552.595 506.907 571.173 506.907C595.723 506.907 620.405 500.116 644.267 493.55C667.627 487.121 691.784 480.473 715.258 480.473C727.34 480.473 738.35 482.177 748.928 485.684C750.019 486.046 751.242 485.906 752.204 485.315C753.167 484.717 753.737 483.744 753.737 482.705V387.318C753.737 385.986 752.81 384.797 751.413 384.336ZM746.607 478.253C736.695 475.471 726.388 474.114 715.258 474.114C690.704 474.114 666.026 480.905 642.167 487.474C618.808 493.9 594.65 500.548 571.173 500.548C554.57 500.548 539.628 497.264 525.564 490.51V402.278C539.696 408.491 554.674 411.521 571.163 411.521C571.163 411.521 571.17 411.521 571.177 411.521C595.727 411.518 620.402 404.726 644.264 398.164C667.623 391.735 691.784 385.086 715.261 385.086C726.46 385.086 736.738 386.552 746.61 389.557V478.253H746.607Z" fill="#343434"/>
<path d="M693.125 396.304C693.125 398.055 694.729 399.251 696.69 399.009C705.158 397.963 713.629 397.528 722.089 397.992C722.745 400.259 724.053 402.332 725.829 404.068C727.601 405.807 729.84 407.213 732.346 408.154C732.346 423.253 732.346 438.356 732.346 453.456C729.843 453.666 727.601 454.601 725.829 456.031C724.053 457.465 722.741 459.386 722.089 461.583C713.621 461.119 705.158 461.564 696.69 462.603C694.729 462.842 693.129 464.508 693.125 466.254V466.257C693.125 468.009 694.729 469.198 696.69 468.959C706.195 467.783 715.696 467.379 725.205 468.152C727.176 468.314 728.774 467.077 728.774 465.316C728.774 463.564 729.576 462.06 730.87 461.077C732.164 460.092 733.947 459.637 735.911 459.99C737.883 460.343 739.476 459.274 739.476 457.519C739.476 440.566 739.476 423.616 739.476 406.666C739.476 404.914 737.883 403.13 735.911 402.777C733.943 402.421 732.164 401.445 730.87 400.122C729.576 398.796 728.774 397.121 728.774 395.366C728.774 393.614 727.173 391.998 725.205 391.843C715.696 391.07 706.191 391.477 696.69 392.653C694.729 392.895 693.129 394.555 693.125 396.304Z" fill="#343434"/>
<path d="M575.476 417.813C565.972 418.115 556.467 417.448 546.962 415.391C544.99 414.968 543.397 415.979 543.397 417.734C543.397 419.486 542.587 420.878 541.297 421.677C540.003 422.471 538.22 422.672 536.252 422.017C534.284 421.368 532.687 422.188 532.687 423.94C532.687 440.89 532.687 457.844 532.687 474.794C532.687 476.549 534.288 478.578 536.252 479.229C538.216 479.881 540.003 481.128 541.297 482.628C542.591 484.139 543.397 485.926 543.397 487.681C543.397 489.436 544.99 491.274 546.962 491.696C556.467 493.75 565.972 494.418 575.476 494.116C577.437 494.056 579.038 492.526 579.038 490.781C579.038 490.781 579.038 490.781 579.038 490.778C579.042 489.029 577.434 487.697 575.476 487.76C567.009 488.03 558.545 487.525 550.074 485.964C549.429 483.614 548.117 481.366 546.342 479.392C544.566 477.417 542.327 475.697 539.821 474.39C539.821 459.287 539.821 444.188 539.821 429.088C542.327 429.241 544.566 428.617 546.342 427.431C548.117 426.246 549.429 424.484 550.074 422.376C558.542 423.94 567.009 424.44 575.476 424.169C577.437 424.109 579.042 422.583 579.042 420.834C579.042 420.834 579.042 420.834 579.042 420.831C579.045 419.082 577.434 417.75 575.476 417.813Z" fill="#343434"/>
<path d="M647.462 404.968C643.412 404.968 639.219 405.572 634.998 406.768C611.229 413.54 593.303 433.762 593.303 453.812C593.303 462.349 596.504 470.133 602.33 475.735C608.202 481.379 616.366 484.492 625.322 484.492C629.19 484.492 633.176 483.913 637.162 482.781C660.546 476.145 678.868 454.966 678.868 434.57C678.864 417.139 665.951 404.968 647.462 404.968ZM635.001 476.718C631.714 477.656 628.459 478.129 625.325 478.129C618.377 478.129 612.066 475.741 607.564 471.408C602.964 466.988 600.433 460.74 600.437 453.812C600.437 436.697 616.573 418.694 637.169 412.828C640.684 411.833 644.15 411.324 647.465 411.324C661.983 411.324 671.737 420.665 671.741 434.57C671.737 452.063 655.259 470.972 635.001 476.718Z" fill="#343434"/>
<path d="M642.795 417.918C641.422 417.918 640.014 418.115 638.602 418.503C635.048 419.479 631.497 420.445 627.946 421.383C627.871 421.403 627.814 421.45 627.735 421.472C627.589 421.52 627.457 421.587 627.322 421.651C627.072 421.768 626.848 421.899 626.641 422.061C626.527 422.153 626.42 422.242 626.32 422.344C626.128 422.538 625.974 422.747 625.839 422.976C625.775 423.084 625.7 423.18 625.65 423.298C625.497 423.654 625.393 424.032 625.393 424.433V444.27C622.705 444.969 620.013 445.694 617.325 446.346C615.425 446.807 614.302 448.553 614.819 450.25C615.25 451.662 616.687 452.594 618.256 452.594C618.566 452.594 618.879 452.556 619.193 452.483C621.257 451.983 623.325 451.414 625.393 450.886V453.812C622.698 454.514 619.999 455.23 617.325 455.878C615.425 456.339 614.302 458.085 614.819 459.783C615.25 461.194 616.687 462.126 618.256 462.126C618.562 462.126 618.879 462.088 619.193 462.015C621.254 461.516 623.325 460.959 625.393 460.428V465.172C625.393 466.927 626.99 468.352 628.958 468.352C630.93 468.352 632.524 466.927 632.524 465.172V458.59C636.52 457.519 640.495 456.428 644.403 455.35L647.825 454.409C649.708 453.891 650.763 452.111 650.186 450.435C649.604 448.756 647.608 447.824 645.729 448.33L642.296 449.274C639.08 450.158 635.8 451.055 632.52 451.942V449.049C632.862 448.956 633.204 448.877 633.547 448.785C633.575 448.778 633.593 448.756 633.622 448.75C635.982 448.117 638.338 447.484 640.702 446.832C648.114 444.791 653.922 437.974 653.922 431.307V428.146C653.922 422.223 649.241 417.918 642.795 417.918ZM646.792 431.31C646.792 435.141 642.966 439.561 638.606 440.76C636.577 441.316 634.549 441.872 632.524 442.416V426.801C635.251 426.073 637.975 425.326 640.706 424.579C644.21 423.628 646.795 425.088 646.795 428.149V431.31H646.792Z" fill="#343434"/>
<path d="M766.185 377.757C724.44 356.725 682.613 368.235 642.17 379.366C601.362 390.599 562.822 401.206 523.755 381.516C522.043 380.654 519.868 381.194 518.899 382.721C517.929 384.25 518.535 386.189 520.25 387.054C561.991 408.084 603.819 396.577 644.269 385.445C684.439 374.387 722.415 363.936 760.87 382.406V488.631C760.87 490.39 762.463 491.811 764.435 491.811C766.403 491.811 768 490.39 768 488.631V380.527C768 379.382 767.305 378.323 766.185 377.757Z" fill="#343434"/>
<path d="M476.616 16.5608C466.831 13.3169 456.664 11.74 445.54 11.74C424.435 11.74 403.223 17.5775 382.71 23.2237C362.635 28.7469 341.874 34.4587 321.695 34.4614C321.692 34.4614 321.689 34.4614 321.686 34.4614C306.808 34.4614 293.478 31.3896 280.938 25.0657C279.988 24.5901 278.824 24.5983 277.886 25.0875C276.942 25.5767 276.363 26.4759 276.363 27.4488V109.436C276.363 110.42 276.958 111.33 277.92 111.817C291.406 118.611 305.726 121.915 321.695 121.915C342.797 121.915 364.011 116.077 384.521 110.434C404.599 104.908 425.364 99.1932 445.54 99.1932C455.925 99.1932 465.388 100.658 474.48 103.672C475.418 103.984 476.469 103.864 477.296 103.355C478.124 102.842 478.614 102.005 478.614 101.112V19.1243C478.614 17.9792 477.817 16.9571 476.616 16.5608ZM472.485 97.2856C463.966 94.8943 455.107 93.7274 445.54 93.7274C424.435 93.7274 403.224 99.5649 382.717 105.211C362.639 110.734 341.874 116.449 321.695 116.449C307.424 116.449 294.581 113.626 282.492 107.821V31.9827C294.639 37.3228 307.513 39.9273 321.686 39.9273C321.686 39.9273 321.692 39.9273 321.698 39.9273C342.8 39.9245 364.008 34.087 384.518 28.4463C404.596 22.9203 425.364 17.2058 445.543 17.2058C455.168 17.2058 464.003 18.4657 472.488 21.0483V97.2856H472.485Z" fill="#343434"/>
<path d="M426.516 26.8469C426.516 28.3528 427.895 29.3804 429.581 29.1727C436.858 28.2735 444.139 27.8991 451.411 28.2981C451.975 30.2467 453.1 32.0285 454.626 33.5207C456.149 35.0156 458.073 36.2236 460.228 37.0325C460.228 50.0111 460.228 62.9925 460.228 75.9711C458.076 76.1514 456.149 76.9549 454.626 78.1847C453.1 79.4173 451.972 81.068 451.411 82.9564C444.133 82.5574 436.858 82.94 429.581 83.8337C427.895 84.0386 426.519 85.4707 426.516 86.9711V86.9738C426.516 88.4796 427.895 89.5017 429.581 89.2968C437.75 88.2856 445.917 87.9385 454.09 88.6026C455.784 88.742 457.157 87.6789 457.157 86.1648C457.157 84.659 457.847 83.3663 458.959 82.5219C460.071 81.6747 461.604 81.2839 463.292 81.5872C464.987 81.8906 466.356 80.9723 466.356 79.4637C466.356 64.8918 466.356 50.3227 466.356 35.7535C466.356 34.2477 464.987 32.7145 463.292 32.4112C461.6 32.1051 460.071 31.2661 458.959 30.1292C457.847 28.9895 457.157 27.5493 457.157 26.0407C457.157 24.5349 455.781 23.1466 454.09 23.0127C445.917 22.3486 437.747 22.6984 429.581 23.7096C427.895 23.9173 426.519 25.3438 426.516 26.8469Z" fill="#343434"/>
<path d="M325.394 45.3355C317.224 45.5952 309.054 45.0213 300.885 43.2531C299.19 42.8896 297.82 43.7587 297.82 45.2672C297.82 46.7731 297.125 47.9701 296.015 48.656C294.903 49.3393 293.371 49.5114 291.679 48.9485C289.988 48.3909 288.615 49.096 288.615 50.6019C288.615 65.171 288.615 79.7429 288.615 94.3121C288.615 95.8206 289.991 97.5642 291.679 98.1245C293.368 98.6847 294.903 99.756 296.015 101.046C297.128 102.344 297.82 103.88 297.82 105.389C297.82 106.897 299.19 108.477 300.885 108.84C309.054 110.606 317.224 111.18 325.394 110.92C327.079 110.868 328.455 109.554 328.455 108.053C328.455 108.053 328.455 108.053 328.455 108.05C328.458 106.547 327.076 105.402 325.394 105.457C318.116 105.689 310.841 105.255 303.56 103.913C303.005 101.893 301.877 99.961 300.351 98.2638C298.825 96.5667 296.901 95.0882 294.747 93.965C294.747 80.9836 294.747 68.005 294.747 55.0264C296.901 55.1576 298.825 54.622 300.351 53.6026C301.877 52.5832 303.005 51.0692 303.56 49.2573C310.838 50.6019 318.116 51.0309 325.394 50.7986C327.079 50.7467 328.458 49.4349 328.458 47.9318C328.458 47.9318 328.458 47.9318 328.458 47.9291C328.461 46.426 327.076 45.2809 325.394 45.3355Z" fill="#343434"/>
<path d="M387.267 34.2943C383.786 34.2943 380.182 34.8136 376.554 35.8411C356.124 41.6623 340.716 59.0436 340.716 76.2774C340.716 83.6152 343.468 90.3054 348.475 95.1208C353.522 99.9717 360.539 102.647 368.237 102.647C371.562 102.647 374.988 102.15 378.414 101.177C398.514 95.4734 414.262 77.2694 414.262 59.7378C414.258 44.7559 403.159 34.2943 387.267 34.2943ZM376.557 95.9653C373.732 96.7715 370.934 97.1787 368.24 97.1787C362.268 97.1787 356.844 95.1263 352.973 91.4013C349.02 87.6026 346.845 82.2324 346.848 76.2774C346.848 61.5661 360.717 46.0923 378.42 41.0501C381.442 40.1947 384.42 39.7574 387.27 39.7574C399.748 39.7574 408.133 47.7867 408.136 59.7378C408.133 74.7743 393.969 91.0269 376.557 95.9653Z" fill="#343434"/>
<path d="M383.256 45.4255C382.076 45.4255 380.866 45.595 379.652 45.9284C376.597 46.7674 373.545 47.5982 370.493 48.4044C370.428 48.4208 370.379 48.4618 370.312 48.4809C370.186 48.5219 370.073 48.5793 369.956 48.634C369.742 48.7351 369.549 48.8471 369.371 48.9865C369.273 49.0658 369.181 49.1423 369.095 49.2297C368.93 49.3965 368.798 49.5768 368.682 49.7736C368.626 49.8665 368.562 49.9485 368.519 50.0496C368.387 50.3557 368.298 50.6809 368.298 51.0253V68.0759C365.988 68.6772 363.674 69.3003 361.364 69.8605C359.73 70.2568 358.765 71.7572 359.209 73.2165C359.58 74.43 360.815 75.2307 362.164 75.2307C362.43 75.2307 362.7 75.1979 362.969 75.135C364.744 74.706 366.521 74.2168 368.298 73.7631V76.2774C365.982 76.8814 363.662 77.4963 361.364 78.0538C359.73 78.4501 358.765 79.9504 359.209 81.4098C359.58 82.6232 360.815 83.424 362.164 83.424C362.427 83.424 362.7 83.3912 362.969 83.3283C364.741 82.8993 366.521 82.421 368.298 81.9646V86.0421C368.298 87.5507 369.671 88.775 371.363 88.775C373.058 88.775 374.427 87.5507 374.427 86.0421V80.385C377.862 79.464 381.279 78.5266 384.638 77.6001L387.58 76.7912C389.198 76.3457 390.105 74.8153 389.608 73.3751C389.109 71.9321 387.393 71.1313 385.778 71.5659L382.827 72.3775C380.063 73.1373 377.243 73.908 374.424 74.6705V72.1835C374.718 72.1042 375.013 72.0359 375.307 71.9567C375.331 71.9512 375.347 71.9321 375.371 71.9266C377.4 71.3828 379.425 70.8389 381.457 70.2787C387.828 68.5241 392.82 62.6648 392.82 56.9338V54.2173C392.82 49.1259 388.796 45.4255 383.256 45.4255ZM386.691 56.9366C386.691 60.2297 383.403 64.0285 379.655 65.0588C377.912 65.5371 376.168 66.0153 374.427 66.4826V53.0613C376.772 52.4355 379.113 51.7932 381.46 51.151C384.472 50.3339 386.694 51.5883 386.694 54.2201V56.9366H386.691Z" fill="#343434"/>
<path d="M489.313 10.906C453.432 -7.1722 417.481 2.72095 382.718 12.2889C347.643 21.9443 314.517 31.0613 280.937 14.1363C279.466 13.3957 277.597 13.8603 276.763 15.1721C275.93 16.4866 276.451 18.1537 277.925 18.8971C313.803 36.9726 349.754 27.0821 384.523 17.5142C419.05 8.00914 451.692 -0.973944 484.744 14.9016V106.205C484.744 107.717 486.114 108.938 487.809 108.938C489.5 108.938 490.873 107.717 490.873 106.205V13.2864C490.873 12.3025 490.276 11.3925 489.313 10.906Z" fill="#343434"/>
<path d="M715.07 201.165C710.193 199.548 705.125 198.762 699.581 198.762C689.062 198.762 678.49 201.672 668.266 204.486C658.261 207.239 647.913 210.085 637.855 210.087C637.854 210.087 637.852 210.087 637.851 210.087C630.436 210.087 623.792 208.556 617.542 205.404C617.068 205.167 616.488 205.171 616.021 205.415C615.55 205.658 615.261 206.107 615.261 206.592V247.455C615.261 247.945 615.558 248.399 616.037 248.641C622.759 252.028 629.896 253.674 637.855 253.674C648.373 253.674 658.946 250.765 669.169 247.952C679.176 245.198 689.525 242.35 699.581 242.35C704.757 242.35 709.474 243.08 714.005 244.582C714.473 244.738 714.996 244.678 715.409 244.424C715.821 244.168 716.066 243.751 716.066 243.306V202.443C716.066 201.872 715.668 201.362 715.07 201.165ZM713.011 241.399C708.765 240.207 704.349 239.626 699.581 239.626C689.062 239.626 678.49 242.535 668.269 245.349C658.262 248.102 647.913 250.95 637.855 250.95C630.743 250.95 624.341 249.543 618.316 246.65V208.851C624.37 211.513 630.787 212.811 637.851 212.811C637.851 212.811 637.854 212.811 637.857 212.811C648.374 212.81 658.945 209.9 669.167 207.089C679.174 204.335 689.525 201.486 699.583 201.486C704.38 201.486 708.783 202.114 713.012 203.401V241.399H713.011Z" fill="#343434"/>
<path d="M690.099 206.291C690.099 207.042 690.786 207.554 691.626 207.451C695.254 207.002 698.883 206.816 702.507 207.015C702.788 207.986 703.349 208.874 704.109 209.618C704.868 210.363 705.828 210.965 706.901 211.368C706.901 217.837 706.901 224.307 706.901 230.775C705.829 230.865 704.868 231.266 704.109 231.879C703.349 232.493 702.787 233.316 702.507 234.257C698.88 234.058 695.254 234.249 691.626 234.694C690.786 234.796 690.101 235.51 690.099 236.258V236.259C690.099 237.01 690.786 237.519 691.626 237.417C695.698 236.913 699.769 236.74 703.842 237.071C704.687 237.141 705.371 236.611 705.371 235.856C705.371 235.106 705.715 234.461 706.269 234.04C706.823 233.618 707.587 233.423 708.429 233.575C709.273 233.726 709.956 233.268 709.956 232.516C709.956 225.253 709.956 217.992 709.956 210.73C709.956 209.98 709.273 209.216 708.429 209.065C707.586 208.912 706.823 208.494 706.269 207.927C705.715 207.359 705.371 206.641 705.371 205.89C705.371 205.139 704.685 204.447 703.842 204.38C699.769 204.049 695.697 204.224 691.626 204.728C690.786 204.831 690.101 205.542 690.099 206.291Z" fill="#343434"/>
<path d="M639.699 215.507C635.627 215.636 631.555 215.35 627.483 214.469C626.639 214.288 625.956 214.721 625.956 215.473C625.956 216.223 625.609 216.82 625.056 217.162C624.502 217.502 623.738 217.588 622.895 217.307C622.052 217.029 621.368 217.381 621.368 218.131C621.368 225.393 621.368 232.656 621.368 239.917C621.368 240.669 622.054 241.538 622.895 241.817C623.737 242.097 624.502 242.63 625.056 243.273C625.611 243.92 625.956 244.686 625.956 245.438C625.956 246.19 626.639 246.977 627.483 247.158C631.555 248.038 635.627 248.324 639.699 248.195C640.539 248.169 641.225 247.514 641.225 246.766C641.225 246.766 641.225 246.766 641.225 246.764C641.226 246.015 640.537 245.445 639.699 245.472C636.072 245.588 632.446 245.371 628.817 244.702C628.54 243.696 627.978 242.733 627.218 241.887C626.457 241.041 625.498 240.304 624.424 239.744C624.424 233.274 624.424 226.805 624.424 220.337C625.498 220.402 626.457 220.135 627.218 219.627C627.978 219.119 628.54 218.364 628.817 217.461C632.444 218.131 636.072 218.345 639.699 218.229C640.539 218.204 641.226 217.55 641.226 216.801C641.226 216.801 641.226 216.801 641.226 216.799C641.228 216.05 640.537 215.479 639.699 215.507Z" fill="#343434"/>
<path d="M670.537 210.004C668.802 210.004 667.006 210.262 665.198 210.774C655.015 213.676 647.335 222.339 647.335 230.928C647.335 234.586 648.707 237.92 651.203 240.32C653.718 242.738 657.216 244.071 661.052 244.071C662.71 244.071 664.417 243.823 666.125 243.339C676.143 240.496 683.992 231.423 683.992 222.685C683.99 215.218 678.458 210.004 670.537 210.004ZM665.199 240.741C663.791 241.143 662.397 241.346 661.054 241.346C658.077 241.346 655.374 240.323 653.445 238.466C651.475 236.573 650.39 233.896 650.392 230.928C650.392 223.596 657.304 215.884 666.128 213.371C667.634 212.944 669.118 212.726 670.539 212.726C676.758 212.726 680.937 216.728 680.938 222.685C680.937 230.179 673.877 238.28 665.199 240.741Z" fill="#343434"/>
<path d="M668.538 215.551C667.95 215.551 667.347 215.636 666.742 215.802C665.219 216.22 663.698 216.634 662.177 217.036C662.145 217.044 662.12 217.065 662.086 217.074C662.024 217.095 661.967 217.123 661.909 217.15C661.802 217.201 661.706 217.257 661.618 217.326C661.569 217.366 661.523 217.404 661.48 217.447C661.398 217.53 661.332 217.62 661.274 217.718C661.246 217.765 661.214 217.806 661.193 217.856C661.127 218.009 661.083 218.171 661.083 218.342V226.84C659.931 227.14 658.778 227.451 657.627 227.73C656.813 227.927 656.331 228.675 656.553 229.403C656.738 230.007 657.353 230.407 658.025 230.407C658.158 230.407 658.293 230.39 658.427 230.359C659.311 230.145 660.197 229.901 661.083 229.675V230.928C659.928 231.229 658.772 231.536 657.627 231.814C656.813 232.011 656.331 232.759 656.553 233.486C656.738 234.091 657.353 234.49 658.025 234.49C658.157 234.49 658.293 234.474 658.427 234.442C659.31 234.229 660.197 233.99 661.083 233.763V235.795C661.083 236.547 661.767 237.157 662.61 237.157C663.455 237.157 664.138 236.547 664.138 235.795V232.975C665.85 232.516 667.553 232.049 669.227 231.587L670.693 231.184C671.499 230.962 671.952 230.199 671.704 229.482C671.455 228.762 670.6 228.363 669.795 228.58L668.324 228.984C666.946 229.363 665.541 229.747 664.136 230.127V228.888C664.283 228.848 664.429 228.814 664.576 228.775C664.588 228.772 664.596 228.762 664.608 228.76C665.619 228.489 666.629 228.218 667.641 227.938C670.817 227.064 673.305 224.144 673.305 221.287V219.933C673.305 217.396 671.299 215.551 668.538 215.551ZM670.25 221.289C670.25 222.93 668.611 224.823 666.743 225.337C665.874 225.575 665.005 225.813 664.138 226.046V219.357C665.306 219.045 666.473 218.725 667.643 218.405C669.144 217.998 670.252 218.623 670.252 219.935V221.289H670.25Z" fill="#343434"/>
<path d="M721.399 198.346C703.516 189.336 685.597 194.267 668.271 199.036C650.789 203.848 634.279 208.392 617.542 199.956C616.809 199.587 615.877 199.819 615.462 200.473C615.046 201.128 615.306 201.959 616.041 202.329C633.923 211.338 651.841 206.409 669.171 201.64C686.379 196.903 702.648 192.425 719.122 200.338V245.845C719.122 246.598 719.805 247.207 720.649 247.207C721.492 247.207 722.177 246.598 722.177 245.845V199.533C722.177 199.042 721.879 198.589 721.399 198.346Z" fill="#343434"/>
</svg>
